HIERARCHY
ROOT RootJoint
{
    OFFSET   0.000000   0.000000   0.000000
    CHANNELS 6 Xposition Yposition Zposition Xrotation Yrotation Zrotation
    JOINT pelvis_lowerback
    {
        OFFSET   0.000000   0.093605   0.000000
        CHANNELS 3 Xrotation Yrotation Zrotation
        JOINT lowerback_torso
        {
            OFFSET   0.000000   0.100000   0.000000
            CHANNELS 3 Xrotation Yrotation Zrotation
            JOINT torso_head
            {
                OFFSET   0.000000   0.282350   0.000000
                CHANNELS 3 Xrotation Yrotation Zrotation
                End Site
                {
                    OFFSET   0.000000   0.192650   0.000000
                }
            }
            JOINT rTorso_Clavicle
            {
                OFFSET  -0.001000   0.157500   0.000000
                CHANNELS 3 Xrotation Yrotation Zrotation
                JOINT rShoulder
                {
                    OFFSET  -0.117647   0.000000   0.000000
                    CHANNELS 3 Xrotation Yrotation Zrotation
                    JOINT rElbow
                    {
                        OFFSET  -0.245000   0.000000   0.000000
                        CHANNELS 3 Xrotation Yrotation Zrotation
                        JOINT rWrist
                        {
                            OFFSET  -0.240000   0.000000   0.000000
                            CHANNELS 3 Xrotation Yrotation Zrotation
                            End Site
                            {
                                OFFSET  -0.116353  -0.002500   0.000000
                            }
                        }
                    }
                }
            }
            JOINT lTorso_Clavicle
            {
                OFFSET   0.001000   0.157500   0.000000
                CHANNELS 3 Xrotation Yrotation Zrotation
                JOINT lShoulder
                {
                    OFFSET   0.117647   0.000000   0.000000
                    CHANNELS 3 Xrotation Yrotation Zrotation
                    JOINT lElbow
                    {
                        OFFSET   0.245000   0.000000   0.000000
                        CHANNELS 3 Xrotation Yrotation Zrotation
                        JOINT lWrist
                        {
                            OFFSET   0.240000   0.000000   0.000000
                            CHANNELS 3 Xrotation Yrotation Zrotation
                            End Site
                            {
                                OFFSET   0.116353  -0.002500   0.000000
                            }
                        }
                    }
                }
            }
        }
    }
    JOINT rHip
    {
        OFFSET  -0.100000  -0.051395   0.000000
        CHANNELS 3 Xrotation Yrotation Zrotation
        JOINT rKnee
        {
            OFFSET   0.000000  -0.410000   0.000000
            CHANNELS 3 Xrotation Yrotation Zrotation
            JOINT rAnkle
            {
                OFFSET   0.000000  -0.390000   0.000000
                CHANNELS 3 Xrotation Yrotation Zrotation
                JOINT rToeJoint
                {
                    OFFSET   0.000000  -0.050000   0.130000
                    CHANNELS 3 Xrotation Yrotation Zrotation
                    End Site
                    {
                        OFFSET  -0.010000   0.002000   0.060000
                    }
                }
            }
        }
    }
    JOINT lHip
    {
        OFFSET   0.100000  -0.051395   0.000000
        CHANNELS 3 Xrotation Yrotation Zrotation
        JOINT lKnee
        {
            OFFSET   0.000000  -0.410000   0.000000
            CHANNELS 3 Xrotation Yrotation Zrotation
            JOINT lAnkle
            {
                OFFSET   0.000000  -0.390000   0.000000
                CHANNELS 3 Xrotation Yrotation Zrotation
                JOINT lToeJoint
                {
                    OFFSET   0.000000  -0.050000   0.130000
                    CHANNELS 3 Xrotation Yrotation Zrotation
                    End Site
                    {
                        OFFSET   0.010000   0.002000   0.060000
                    }
                }
            }
        }
    }
}
MOTION
Frames: 10
Frame Time:   0.008333
 -2.767769   0.966972   4.491767 112.985288 -82.201888 107.398773   1.066038  -2.477155  -1.120150  -2.491343  -3.788000   2.186940   1.786154  -4.320416   2.052677  -6.963645  -7.565541  -6.946194 -44.481036  -8.126793  15.515186   0.022524  76.330517  -0.020197  -2.561219   3.695738  -9.688476   5.340889   8.041246   3.045329   5.418616  -5.273651 -41.835329 179.998197 -81.618752 179.998037   2.025965  -4.615518   1.036897 -11.669101   0.605503  -3.545445  14.904545   0.000383   0.000185  19.595462   0.565046   6.815429 -10.738517   0.007548   0.003764 -11.849355  -1.990698   5.877405  12.641826  -0.000526   0.000610  16.365534   0.996446  -0.329084 -36.982946   0.001451  -0.001542
 -2.767502   0.966544   4.490900 111.977703 -82.108945 106.271511   0.948607  -2.516594  -1.070782  -2.596323  -3.830363   2.193667   1.889821  -4.275431   2.034578  -6.911072  -7.627945  -7.072415 -44.516223  -8.168947  15.474610   0.019703  75.858386  -0.017173  -2.520552   3.804741  -9.942199   5.337280   7.833208   2.952498   5.409741  -5.453590 -41.804731 179.998544 -81.617148 179.998415   2.015662  -4.668350   1.184343 -11.896534   0.808852  -3.628479  15.430469   0.001537   0.001359  18.400857   0.374678   6.727926  -9.945371   0.008953   0.003899 -12.231497  -1.955648   6.076373  13.092542  -0.000646   0.001312  15.986920   0.754641  -0.375129 -36.717680   0.001283  -0.001220
 -2.767220   0.966065   4.490035 110.840797 -82.042241 105.024763   0.844929  -2.551795  -1.025931  -2.683631  -3.879830   2.201066   1.992305  -4.228899   2.016362  -6.850191  -7.697129  -7.166780 -44.535481  -8.225927  15.443160   0.016805  75.402557  -0.014299  -2.489082   3.840543 -10.148422   5.325601   7.616334   2.845565   5.391748  -5.636382 -41.783698 179.998839 -81.617736 179.998736   2.006233  -4.725831   1.321128 -12.070620   1.009240  -3.745501  15.982960   0.002667   0.002428  17.281044   0.197626   6.641881  -9.266292   0.009797   0.003916 -12.611393  -1.942089   6.261765  13.571907  -0.000744   0.001962  15.605831   0.502315  -0.426761 -36.466657   0.001159  -0.000958
 -2.766919   0.965574   4.489157 109.743441 -81.975557 103.824051   0.744616  -2.581146  -0.983968  -2.765128  -3.926243   2.211304   2.088318  -4.184651   1.998274  -6.787777  -7.763863  -7.235029 -44.546428  -8.288717  15.422516   0.014152  74.973096  -0.011829  -2.464108   3.843821 -10.323246   5.314703   7.408772   2.734264   5.374404  -5.811588 -41.770234 179.999074 -81.618328 179.998993   1.996975  -4.786246   1.443612 -12.208796   1.199850  -3.882979  16.515233   0.003586   0.003147  16.236906   0.034050   6.558357  -8.640490   0.010280   0.003774 -12.980187  -1.935516   6.440402  14.034467  -0.000813   0.002416  15.235929   0.259375  -0.481957 -36.219776   0.001056  -0.000749
 -2.766584   0.965085   4.488256 108.731301 -81.902719 102.712754   0.647948  -2.604835  -0.942973  -2.843221  -3.967003   2.225179   2.177089  -4.143179   1.980767  -6.726085  -7.826105  -7.284887 -44.552210  -8.353194  15.410028   0.011783  74.570285  -0.009718  -2.442972   3.832434 -10.478147   5.305585   7.214421   2.624363   5.359152  -5.976295 -41.760952 179.999263 -81.619106 179.999200   1.987906  -4.845692   1.555610 -12.320538   1.379481  -4.032102  17.019135   0.004269   0.003545  15.262675  -0.117120   6.477727  -8.065037   0.010441   0.003504 -13.337843  -1.931945   6.615802  14.470863  -0.000858   0.002683  14.881822   0.031046  -0.538651 -35.976065   0.000961  -0.000584
 -2.766204   0.964606   4.487326 107.815620 -81.823180 101.701372   0.556360  -2.623455  -0.902226  -2.917385  -4.001966   2.242588   2.259195  -4.104431   1.964110  -6.666251  -7.883516  -7.321985 -44.554673  -8.417058  15.403305   0.009689  74.193156  -0.007901  -2.424389   3.813570 -10.618677   5.297900   7.033744   2.519149   5.345827  -6.129888 -41.753670 179.999416 -81.620135 179.999366   1.979102  -4.902150   1.660978 -12.410907   1.548192  -4.187527  17.493874   0.004734   0.003699  14.353461  -0.256827   6.400193  -7.536675   0.010338   0.003159 -13.684845  -1.930139   6.789229  14.879518  -0.000886   0.002802  14.545613  -0.181486  -0.595448 -35.736308   0.000868  -0.000456
 -2.765773   0.964143   4.486360 106.995971 -81.737249 100.789778   0.470426  -2.637641  -0.861878  -2.987048  -4.031584   2.262902   2.335400  -4.068259   1.948413  -6.608840  -7.936289  -7.350000 -44.554927  -8.479050  15.400659   0.007851  73.840453  -0.006329  -2.407626   3.790859 -10.747689   5.291315   6.866333   2.420121   5.334150  -6.272539 -41.747195 179.999540 -81.621411 179.999501   1.970613  -4.954916   1.761969 -12.483609   1.706428  -4.345979  17.940214   0.005012   0.003679  13.504855  -0.385946   6.325862  -7.051810   0.010033   0.002782 -14.020288  -1.929305   6.960602  15.263700  -0.000903   0.002815  14.227707  -0.378429  -0.651907 -35.507569   0.000773  -0.000356
 -2.765310   0.963126   4.485400 105.184226 -81.781864  98.955349   0.465520  -2.644596  -0.880610  -3.014598  -4.093173   2.246144   2.403059  -3.954533   1.948789  -6.558957  -8.027196  -7.395363 -44.509466  -8.664508  15.409919   0.005719  73.437089  -0.004567  -2.311560   3.854678 -11.014350   5.185951   6.623670   2.335979   5.254903  -6.451686 -41.618154 179.999577 -81.686356 179.999559   1.981417  -5.066633   1.844497 -12.478788   1.928368  -4.601919  18.866694   0.007141   0.005995  12.326891  -0.474901   6.148232  -6.539709   0.010726   0.003519 -14.429870  -2.020662   7.030472  16.009022  -0.000977   0.003847  13.410166  -0.640637  -0.629201 -34.253083   0.000621  -0.000560
 -2.764958   0.961684   4.484433 102.948641 -81.840711  96.709496   0.442585  -2.648526  -0.906914  -3.040904  -4.162665   2.228449   2.471887  -3.841938   1.943233  -6.506032  -8.128433  -7.413706 -44.458287  -8.858632  15.422674   0.004057  73.049290  -0.003428  -2.225654   3.867034 -11.272842   5.069400   6.380211   2.265171   5.163920  -6.625337 -41.486992 179.999305 -81.750223 179.999291   1.995015  -5.175895   1.957245 -12.387667   2.143219  -4.880986  19.826218   0.009194   0.008308  11.231242  -0.553784   5.979862  -6.068934   0.011139   0.004147 -14.833316  -2.117035   7.075995  16.775805  -0.000923   0.005059  12.612056  -0.905893  -0.624022 -33.691021   0.000535  -0.000285
 -2.764663   0.959881   4.483460 100.517210 -81.874118  94.272474   0.394750  -2.647217  -0.934041  -3.083819  -4.227752   2.216739   2.534187  -3.735838   1.935557  -6.453199  -8.228236  -7.412500 -44.405460  -9.050153  15.440897   0.002786  72.683916  -0.002749  -2.147935   3.855298 -11.515652   4.956139   6.152418   2.199897   5.075200  -6.787469 -41.362849 179.998908 -81.809585 179.998892   2.008941  -5.285697   2.087337 -12.248029   2.344034  -5.165899  20.753075   0.010815   0.010066  10.210779  -0.624062   5.821197  -5.628928   0.011289   0.004584 -15.227650  -2.208916   7.111339  17.506773  -0.000795   0.006075  11.829022  -1.160062  -0.632524 -33.709801   0.000426  -0.000240
